<svg width="42" height="52" viewBox="0 0 42 52" fill="none" xmlns="http://www.w3.org/2000/svg">
<g clip-path="url(#clip0_99_48)">
<mask id="path-1-outside-1_99_48" maskUnits="userSpaceOnUse" x="0" y="0" width="42" height="52" fill="black">
<rect fill="white" width="42" height="52"/>
<path fill-rule="evenodd" clip-rule="evenodd" d="M27.3719 39.9636C35.2934 37.3029 41 29.8179 41 21C41 9.9543 32.0457 1 21 1C9.9543 1 1 9.9543 1 21C1 29.8179 6.70656 37.3029 14.6281 39.9636L21 51L27.3719 39.9636Z"/>
</mask>
<path fill-rule="evenodd" clip-rule="evenodd" d="M27.3719 39.9636C35.2934 37.3029 41 29.8179 41 21C41 9.9543 32.0457 1 21 1C9.9543 1 1 9.9543 1 21C1 29.8179 6.70656 37.3029 14.6281 39.9636L21 51L27.3719 39.9636Z" fill="#4E92FB"/>
<path d="M27.3719 39.9636L27.0535 39.0156C26.8225 39.0932 26.6277 39.2525 26.5059 39.4636L27.3719 39.9636ZM14.6281 39.9636L15.4941 39.4636C15.3723 39.2525 15.1775 39.0932 14.9465 39.0156L14.6281 39.9636ZM21 51L20.134 51.5C20.3126 51.8094 20.6427 52 21 52C21.3573 52 21.6874 51.8094 21.866 51.5L21 51ZM40 21C40 29.3754 34.5801 36.4876 27.0535 39.0156L27.6903 40.9115C36.0068 38.1182 42 30.2603 42 21H40ZM21 2C31.4934 2 40 10.5066 40 21H42C42 9.40202 32.598 0 21 0V2ZM2 21C2 10.5066 10.5066 2 21 2V0C9.40202 0 0 9.40202 0 21H2ZM14.9465 39.0156C7.41988 36.4876 2 29.3754 2 21H0C0 30.2603 5.99325 38.1182 14.3097 40.9115L14.9465 39.0156ZM21.866 50.5L15.4941 39.4636L13.7621 40.4636L20.134 51.5L21.866 50.5ZM26.5059 39.4636L20.134 50.5L21.866 51.5L28.2379 40.4636L26.5059 39.4636Z" fill="#3F7DDE" mask="url(#path-1-outside-1_99_48)"/>
<circle cx="21" cy="21" r="18" fill="white"/>
<g clip-path="url(#clip1_99_48)">
<path d="M25.805 16.8177H32.7897L30.5579 12H24.4887L25.805 16.8177Z" fill="#4E92FB"/>
<path d="M18.2957 12L16.9794 16.8177H25.0206L23.7043 12H18.2957Z" fill="#4E92FB"/>
<path d="M25.1369 17.5635H16.8631V19.7841H25.1369V17.5635Z" fill="#4E92FB"/>
<path d="M25.894 19.7841H32.1216H33V17.5635H25.894V19.7841Z" fill="#4E92FB"/>
<path d="M15.5295 22.7407C14.374 22.7407 13.4338 23.6664 13.4338 24.8033V30.0024H17.6276V24.8033C17.6276 23.6664 16.6874 22.7407 15.532 22.7407H15.5295Z" fill="#4E92FB"/>
<path d="M10.2742 20.5299V30H12.6767V24.8009C12.6767 23.2534 13.9583 21.9949 15.532 21.9949C17.1056 21.9949 18.3872 23.2534 18.3872 24.8009V30H31.7456V20.5299H10.2742Z" fill="#4E92FB"/>
<path d="M16.106 17.5635H9V19.7841H9.89567H16.106V17.5635Z" fill="#4E92FB"/>
<path d="M17.5113 12H11.3926L9.20536 16.8177H16.1951L17.5113 12Z" fill="#4E92FB"/>
</g>
</g>
<defs>
<clipPath id="clip0_99_48">
<rect width="42" height="52" fill="white"/>
</clipPath>
<clipPath id="clip1_99_48">
<rect width="24" height="18" fill="white" transform="translate(9 12)"/>
</clipPath>
</defs>
</svg>
