<svg width="24" height="25" viewBox="0 0 24 25" fill="none" xmlns="http://www.w3.org/2000/svg">
<circle cx="12" cy="12" r="11.5" fill="#4E92FB" stroke="#3F7DDE"/>
<circle cx="12" cy="12" r="10" fill="white"/>
<g clip-path="url(#clip0_106_7)">
<path d="M14.4025 10.4088H17.8948L16.779 8H13.7443L14.4025 10.4088Z" fill="#4E92FB"/>
<path d="M10.6478 8L9.98969 10.4088H14.0103L13.3522 8H10.6478Z" fill="#4E92FB"/>
<path d="M14.0685 10.7817H9.93155V11.892H14.0685V10.7817Z" fill="#4E92FB"/>
<path d="M14.447 11.892H17.5608H18V10.7817H14.447V11.892Z" fill="#4E92FB"/>
<path d="M9.26474 13.3704C8.68701 13.3704 8.2169 13.8332 8.2169 14.4017V17.0012H10.3138V14.4017C10.3138 13.8332 9.84371 13.3704 9.26598 13.3704H9.26474Z" fill="#4E92FB"/>
<path d="M6.63712 12.265V17H7.83835V14.4005C7.83835 13.6267 8.47918 12.9974 9.26598 12.9974C10.0528 12.9974 10.6936 13.6267 10.6936 14.4005V17H17.3728V12.265H6.63712Z" fill="#4E92FB"/>
<path d="M9.55299 10.7817H6V11.892H6.44783H9.55299V10.7817Z" fill="#4E92FB"/>
<path d="M10.2557 8H7.19628L6.10268 10.4088H9.59752L10.2557 8Z" fill="#4E92FB"/>
</g>
<defs>
<clipPath id="clip0_106_7">
<rect width="12" height="9" fill="white" transform="translate(6 8)"/>
</clipPath>
</defs>
</svg>
